Title                            : Fish Tank
Year                             : 2009
Genre                            : Drama
iMDB URL                         : http://www.imdb.com/title/tt1232776/
Awards                           : Won BAFTA Film Award. Another 18 wins & 15 nominations

Complete name                    : Fish.Tank.2009.BRRIP.H264-ZEKTORM.mp4
Format                           : MPEG-4
Format profile                   : Base Media
Codec ID                         : isom
File size                        : 1.95 GiB
Duration                         : 2h 2mn
Overall bit rate                 : 2279 Kbps
Subtitles                        : English (Format: srt)

Video
ID                               : 1
Format                           : AVC
Format/Info                      : Advanced Video Codec
Format profile                   : High@L3.0
Format settings, CABAC           : Yes
Codec ID                         : avc1
Codec ID/Info                    : Advanced Video Coding
Duration                         : 2h 2mn
Bit rate mode                    : Variable
Bit rate                         : 2121 Kbps
Width                            : 960 pixels
Height                           : 720 pixels
Display aspect ratio             : 4/3
Frame rate mode                  : Constant
Frame rate                       : 23.976 fps
Resolution                       : 24 bits
Colorimetry                      : 4:2:0
Scan type                        : Progressive
Bits/(Pixel*Frame)               : 0.128
Stream size                      : 1.82 GiB (93%)
Title                            : Video
Writing library                  : x264

Audio #1
ID                               : 2
Format                           : AAC
Format/Info                      : Advanced Audio Codec
Format version                   : Version 4
Format profile                   : LC
Format settings, SBR             : Yes
Format settings, PS              : No
Codec ID                         : 40
Duration                         : 2h 2mn
Bit rate mode                    : Variable
Bit rate                         : 89.2 Kbps
Maximum bit rate                 : 235 Kbps
Channel(s)                       : 6 channels
Channel positions                : Front: L C R, Rear: L R, LFE
Sampling rate                    : 48.0 KHz
Resolution                       : 16 bits
Stream size                      : 78.3 MiB (4%)
Title                            : English
Language                         : English

Audio #2
ID                               : 3
Format                           : AAC
Format/Info                      : Advanced Audio Codec
Format version                   : Version 4
Format profile                   : LC
Format settings, SBR             : Yes
Format settings, PS              : No
Codec ID                         : 40
Duration                         : 2h 2mn
Bit rate mode                    : Variable
Bit rate                         : 66.15 Kbps
Maximum bit rate                 : 94.8 Kbps
Channel(s)                       : 2 channels
Channel positions                : L R
Sampling rate                    : 48.0 KHz
Resolution                       : 16 bits
Stream size                      : 58.2 MiB (3%)
Title                            : English
Language                         : English
